# xmcd
#
# Track frame offsets: 
#        150
#        38507
#        64992
#        91747
#
# Disc length: 1426 seconds
#
# Revision: 0
# Processed by: cddbd v1.5PL3 Copyright (c) Steve Scherf et al.
# Submitted via: ExactAudioCopy v0.90b4
#
DISCID=27059004
DTITLE=Mick Taylor All Star Blues Band - Mick Taylor All Star Blues Ba
DTITLE=nd
DYEAR=1996
DGENRE=Blues
TTITLE0=I Wonder Why
TTITLE1=Laundromat Blues
TTITLE2=Little Red Rooster
TTITLE3=Slow Blues
EXTD=
EXTT0=
EXTT1=
EXTT2=
EXTT3=
PLAYORDER=
